<?xml version="1.0" encoding="UTF-8" standalone="no"?>
<!-- Created with Inkscape (http://www.inkscape.org/) -->

<svg
   xml:space="preserve"
   id="svg5"
   version="1.1"
   viewBox="0 0 8.5791011 12.923695"
   height="48.845463"
   width="32.42495"
   xmlns="http://www.w3.org/2000/svg"
   xmlns:svg="http://www.w3.org/2000/svg"><defs
     id="defs2" /><g
     id="layer2"
     transform="translate(-2070.2712,-10.927846)"><g
       id="g1324"><path
         style="opacity:0.99;fill:#ffffff;fill-opacity:1;fill-rule:evenodd;stroke:none;stroke-width:0.188973;stroke-dasharray:none;stroke-opacity:1"
         id="path1816-6-2"
         d="m 2077.2554,13.622489 a 2.6946435,2.6946435 0 0 1 -2.6944,2.694643 2.6946435,2.6946435 0 0 1 -2.6949,-2.694258 2.6946435,2.6946435 0 0 1 2.6941,-2.695028 2.6946435,2.6946435 0 0 1 2.6952,2.693873" /><path
         id="path1914-6-2-0"
         style="opacity:0.99;fill:#ffffff;fill-opacity:1;fill-rule:evenodd;stroke:none;stroke-width:0.188973;stroke-dasharray:none;stroke-opacity:1"
         d="m 2072.7882,16.726002 c -1.4426,0.312536 -2.5171,1.591169 -2.5171,3.129983 v 3.864555 0.131002 h 8.5791 V 23.72054 19.855985 c 0,-1.538625 -1.0744,-2.817249 -2.5167,-3.129983 a 3.075089,2.850735 0 0 1 -0.013,0.0063 3.075089,2.850735 0 0 1 -0.2262,0.133593 3.075089,2.850735 0 0 1 -0.238,0.114725 3.075089,2.850735 0 0 1 -0.2479,0.09511 3.075089,2.850735 0 0 1 -0.2557,0.07475 3.075089,2.850735 0 0 1 -0.2619,0.05403 3.075089,2.850735 0 0 1 -0.2662,0.03257 3.075089,2.850735 0 0 1 -0.2678,0.01068 3.075089,2.850735 0 0 1 -0.268,-0.01068 3.075089,2.850735 0 0 1 -0.266,-0.03257 3.075089,2.850735 0 0 1 -0.2621,-0.05366 3.075089,2.850735 0 0 1 -0.2557,-0.07475 3.075089,2.850735 0 0 1 -0.2479,-0.09511 3.075089,2.850735 0 0 1 -0.238,-0.115085 3.075089,2.850735 0 0 1 -0.226,-0.133593 3.075089,2.850735 0 0 1 -0.013,-0.0063 z" /></g></g></svg>
